<svg width="82" height="24" viewBox="0 0 82 24" fill="none" xmlns="http://www.w3.org/2000/svg">
<path d="M0.0583953 24V0.118229H6.53089C8.26774 0.118229 9.52968 0.543397 10.3167 1.39373C11.1127 2.23502 11.5108 3.62812 11.5108 5.57304V6.61786C11.5108 7.73958 11.3072 8.64871 10.9002 9.34527C10.5021 10.0418 9.89152 10.4986 9.06832 10.7158C10.1448 10.9871 10.864 11.6249 11.2258 12.629C11.5967 13.6241 11.7822 14.8408 11.7822 16.2791C11.7822 17.826 11.6374 19.1784 11.3479 20.3363C11.0585 21.4942 10.5338 22.3943 9.77392 23.0366C9.01405 23.6788 7.93304 24 6.53089 24H0.0583953ZM4.72619 9.11459H5.70317C6.14643 9.11459 6.43138 8.94271 6.55803 8.59896C6.68467 8.25521 6.748 7.84361 6.748 7.36417V4.96242C6.748 4.1935 6.40877 3.80904 5.73031 3.80904H4.72619V9.11459ZM5.20111 19.7935C6.44043 19.7935 7.06009 19.2055 7.06009 18.0295V15.0443C7.06009 14.3659 6.95606 13.8321 6.748 13.4432C6.54898 13.0451 6.16905 12.8461 5.60819 12.8461H4.72619V19.7664C4.9252 19.7845 5.08351 19.7935 5.20111 19.7935ZM13.3562 24V0.118229H22.9089V4.73175H18.2139V9.38597H22.7189V13.8774H18.2139V19.3457H23.221V24H13.3562ZM26.6811 24L24.1165 0.118229H28.7843L30.1005 15.1936L31.4439 0.118229H35.8946L37.1701 15.1936L38.4456 0.118229H43.1677L40.5624 24H34.8362L33.6421 12.5069L32.5023 24H26.6811ZM44.5924 24V0.118229H54.1451V4.73175H49.4502V9.38597H53.9551V13.8774H49.4502V19.3457H54.4572V24H44.5924ZM55.3935 24L57.7002 0.118229H65.801L68.0671 24H63.5485L63.2093 20.1463H60.3327L60.0341 24H55.3935ZM60.6719 16.3334H62.843L61.7981 4.18898H61.581L60.6719 16.3334ZM69.5325 24V0.118229H76.8599C78.0811 0.118229 79.0038 0.398659 79.628 0.959518C80.2522 1.51133 80.6683 2.2893 80.8764 3.29342C81.0935 4.28849 81.202 5.45996 81.202 6.80783C81.202 8.11047 81.0347 9.15077 80.7 9.92874C80.3743 10.7067 79.7547 11.2449 78.841 11.5435C79.5918 11.6973 80.1165 12.0727 80.415 12.6697C80.7226 13.2577 80.8764 14.0221 80.8764 14.9629V24H76.1679V14.6508C76.1679 13.9543 76.0231 13.5246 75.7337 13.3617C75.4532 13.1899 74.9964 13.1039 74.3632 13.1039V24H69.5325ZM74.3903 8.96533H75.5437C76.2041 8.96533 76.5342 8.24616 76.5342 6.80783C76.5342 5.87608 76.4619 5.26547 76.3171 4.97599C76.1724 4.68652 75.901 4.54178 75.503 4.54178H74.3903V8.96533Z" fill="black"/>
</svg>
